<?xml version="1.0"?>
<svg width="1000" height="1000" viewBox="0 0 1300 1300" xmlns="http://www.w3.org/2000/svg" role="img" aria-label="AI Skills &amp; Capabilities model">
  <rect x="0" y="0" width="1300" height="1300" fill="#ffffff"></rect>
  <g class="fills"><path d="M179.15 307.91 A582 582 0 0 1 1163.88 376.77 L1169.06 424.31 L1135.62 391.79 A550 550 0 0 0 205.04 326.72 L219.61 282.41 Z" fill="#E331D0"></path><path d="M1181.68 413.28 A582 582 0 0 1 629.69 1231.65 L585.93 1212.36 L630.81 1199.66 A550 550 0 0 0 1152.45 426.29 L1183.54 461.07 Z" fill="#E331D0"></path><path d="M589.16 1228.81 A582 582 0 0 1 156.44 341.59 L195.02 313.33 L183.57 358.54 A550 550 0 0 0 592.51 1196.99 L546.85 1206.52 Z" fill="#E331D0"></path><path d="M654.00 258.02 A392 392 0 0 1 1041.98 646.00 L979.98 646.00 A330 330 0 0 0 654.00 320.02 Z" fill="#ADADB4"></path><path d="M654.00 110.01 A540 540 0 0 1 852.95 149.59 L798.60 280.78 A398 398 0 0 0 654.00 252.02 Z" fill="#ADADB4"></path><path d="M860.34 152.65 A540 540 0 0 1 1029.00 265.34 L928.59 365.76 A398 398 0 0 0 806.00 283.85 Z" fill="#ADADB4"></path><path d="M1034.66 271.00 A540 540 0 0 1 1147.35 439.66 L1016.15 494.00 A398 398 0 0 0 934.24 371.41 Z" fill="#ADADB4"></path><path d="M1150.41 447.05 A540 540 0 0 1 1189.99 646.00 L1047.98 646.00 A398 398 0 0 0 1019.22 501.40 Z" fill="#ADADB4"></path><path d="M1041.98 654.00 A392 392 0 0 1 654.00 1041.98 L654.00 979.98 A330 330 0 0 0 979.98 654.00 Z" fill="#BEBEC5"></path><path d="M1189.99 654.00 A540 540 0 0 1 1150.41 852.95 L1019.22 798.60 A398 398 0 0 0 1047.98 654.00 Z" fill="#BEBEC5"></path><path d="M1147.35 860.34 A540 540 0 0 1 1034.66 1029.00 L934.24 928.59 A398 398 0 0 0 1016.15 806.00 Z" fill="#BEBEC5"></path><path d="M1029.00 1034.66 A540 540 0 0 1 860.34 1147.35 L806.00 1016.15 A398 398 0 0 0 928.59 934.24 Z" fill="#BEBEC5"></path><path d="M852.95 1150.41 A540 540 0 0 1 654.00 1189.99 L654.00 1047.98 A398 398 0 0 0 798.60 1019.22 Z" fill="#BEBEC5"></path><path d="M646.00 1041.98 A392 392 0 0 1 258.02 654.00 L320.02 654.00 A330 330 0 0 0 646.00 979.98 Z" fill="#CBCBD1"></path><path d="M646.00 1189.99 A540 540 0 0 1 514.11 1172.62 L550.86 1035.45 A398 398 0 0 0 646.00 1047.98 Z" fill="#CBCBD1"></path><path d="M506.38 1170.55 A540 540 0 0 1 383.47 1119.64 L454.47 996.66 A398 398 0 0 0 543.13 1033.38 Z" fill="#CBCBD1"></path><path d="M376.54 1115.64 A540 540 0 0 1 271.00 1034.66 L371.41 934.24 A398 398 0 0 0 447.55 992.66 Z" fill="#CBCBD1"></path><path d="M265.34 1029.00 A540 540 0 0 1 184.36 923.46 L307.34 852.45 A398 398 0 0 0 365.76 928.59 Z" fill="#CBCBD1"></path><path d="M180.36 916.53 A540 540 0 0 1 129.45 793.62 L266.62 756.87 A398 398 0 0 0 303.34 845.53 Z" fill="#CBCBD1"></path><path d="M127.38 785.89 A540 540 0 0 1 110.01 654.00 L252.02 654.00 A398 398 0 0 0 264.55 749.14 Z" fill="#CBCBD1"></path><path d="M258.02 646.00 A392 392 0 0 1 646.00 258.02 L646.00 320.02 A330 330 0 0 0 320.02 646.00 Z" fill="#D9D9DE"></path><path d="M110.01 646.00 A540 540 0 0 1 127.38 514.11 L264.55 550.86 A398 398 0 0 0 252.02 646.00 Z" fill="#D9D9DE"></path><path d="M129.45 506.38 A540 540 0 0 1 180.36 383.47 L303.34 454.47 A398 398 0 0 0 266.62 543.13 Z" fill="#D9D9DE"></path><path d="M184.36 376.54 A540 540 0 0 1 265.34 271.00 L365.76 371.41 A398 398 0 0 0 307.34 447.55 Z" fill="#D9D9DE"></path><path d="M271.00 265.34 A540 540 0 0 1 376.54 184.36 L447.55 307.34 A398 398 0 0 0 371.41 365.76 Z" fill="#D9D9DE"></path><path d="M383.47 180.36 A540 540 0 0 1 506.38 129.45 L543.13 266.62 A398 398 0 0 0 454.47 303.34 Z" fill="#D9D9DE"></path><path d="M514.11 127.38 A540 540 0 0 1 646.00 110.01 L646.00 252.02 A398 398 0 0 0 550.86 264.55 Z" fill="#D9D9DE"></path><path d="M646.00 827.96 A178 178 0 0 1 646.00 472.04 L646.00 546.08 A104 104 0 0 0 646.00 753.92 Z" fill="#150027"></path><path d="M392.22 496.55 A300 300 0 0 1 646.00 350.03 L646.00 466.04 A184 184 0 0 0 492.69 554.56 Z" fill="#150027"></path><path d="M388.22 796.52 A300 300 0 0 1 388.22 503.48 L488.69 561.49 A184 184 0 0 0 488.69 738.51 Z" fill="#150027"></path><path d="M646.00 949.97 A300 300 0 0 1 392.22 803.45 L492.69 745.44 A184 184 0 0 0 646.00 833.96 Z" fill="#150027"></path><path d="M654.00 472.04 A178 178 0 0 1 654.00 827.96 L654.00 753.92 A104 104 0 0 0 654.00 546.08 Z" fill="#150027"></path><path d="M654.00 350.03 A300 300 0 0 1 907.78 496.55 L807.31 554.56 A184 184 0 0 0 654.00 466.04 Z" fill="#150027"></path><path d="M911.78 503.48 A300 300 0 0 1 911.78 796.52 L811.31 738.51 A184 184 0 0 0 811.31 561.49 Z" fill="#150027"></path><path d="M907.78 803.45 A300 300 0 0 1 654.00 949.97 L654.00 833.96 A184 184 0 0 0 807.31 745.44 Z" fill="#150027"></path><circle cx="650" cy="650" r="104" fill="#ffffff"></circle></g>
  <g class="labels" text-anchor="middle"><path id="arr0" fill="none" d="M242.85 256.82 A566 566 0 0 1 1130.00 350.07"></path><text font-family="Arial, &#39;Helvetica Neue&#39;, Helvetica, sans-serif" font-weight="800" font-size="16" letter-spacing="0.2" fill="#ffffff" text-anchor="middle" dominant-baseline="central"><textPath href="#arr0" startOffset="50%" dominant-baseline="central">DRIVING TRANSPARENCY &amp; ETHICAL AI USAGE</textPath></text><path id="arr1" fill="none" d="M669.75 1215.66 A566 566 0 0 0 1194.07 493.99"></path><text font-family="Arial, &#39;Helvetica Neue&#39;, Helvetica, sans-serif" font-weight="800" font-size="16" letter-spacing="0.2" fill="#ffffff" text-anchor="middle" dominant-baseline="central"><textPath href="#arr1" startOffset="50%" dominant-baseline="central">ENSURING SAFETY &amp; COMPLIANCE THROUGH RESPONSIBLE USE OF AI</textPath></text><path id="arr2" fill="none" d="M150.25 384.28 A566 566 0 0 0 513.07 1199.19"></path><text font-family="Arial, &#39;Helvetica Neue&#39;, Helvetica, sans-serif" font-weight="800" font-size="16" letter-spacing="0.2" fill="#ffffff" text-anchor="middle" dominant-baseline="central"><textPath href="#arr2" startOffset="50%" dominant-baseline="central">LEADING BY EXAMPLE TO OPTIMIZE AI ADOPTION &amp; ORGANIZATIONAL READINESS</textPath></text><path id="d0" fill="none" d="M650.00 289.00 A361 361 0 0 1 1011.00 650.00"></path><text font-family="Arial, &#39;Helvetica Neue&#39;, Helvetica, sans-serif" font-weight="800" font-size="25" letter-spacing="0.5" fill="#150027" text-anchor="middle" dominant-baseline="central"><textPath href="#d0" startOffset="50%" dominant-baseline="central">AI STRATEGIZING</textPath></text><path id="d0s0l0" fill="none" d="M729.21 251.80 L753.79 128.22"></path><text font-family="Arial, &#39;Helvetica Neue&#39;, Helvetica, sans-serif" font-weight="600" font-size="12.5" letter-spacing="0.2" fill="#150027" text-anchor="middle" dominant-baseline="central"><textPath href="#d0s0l0" startOffset="50%" dominant-baseline="central">AI STRATEGY</textPath></text><path id="d0s1l0" fill="none" d="M863.55 304.70 L929.82 197.54"></path><text font-family="Arial, &#39;Helvetica Neue&#39;, Helvetica, sans-serif" font-weight="600" font-size="12.5" letter-spacing="0.2" fill="#150027" text-anchor="middle" dominant-baseline="central"><textPath href="#d0s1l0" startOffset="50%" dominant-baseline="central">IDENTIFYING &amp;</textPath></text><path id="d0s1l1" fill="none" d="M875.56 312.42 L945.56 207.66"></path><text font-family="Arial, &#39;Helvetica Neue&#39;, Helvetica, sans-serif" font-weight="600" font-size="12.5" letter-spacing="0.2" fill="#150027" text-anchor="middle" dominant-baseline="central"><textPath href="#d0s1l1" startOffset="50%" dominant-baseline="central">PRIORITIZING</textPath></text><path id="d0s1l2" fill="none" d="M887.30 320.57 L960.94 218.33"></path><text font-family="Arial, &#39;Helvetica Neue&#39;, Helvetica, sans-serif" font-weight="600" font-size="12.5" letter-spacing="0.2" fill="#150027" text-anchor="middle" dominant-baseline="central"><textPath href="#d0s1l2" startOffset="50%" dominant-baseline="central">AI USE-CASES</textPath></text><path id="d0s2l0" fill="none" d="M975.21 406.95 L1076.14 331.52"></path><text font-family="Arial, &#39;Helvetica Neue&#39;, Helvetica, sans-serif" font-weight="600" font-size="12.5" letter-spacing="0.2" fill="#150027" text-anchor="middle" dominant-baseline="central"><textPath href="#d0s2l0" startOffset="50%" dominant-baseline="central">DESIGNING</textPath></text><path id="d0s2l1" fill="none" d="M983.56 418.54 L1087.07 346.70"></path><text font-family="Arial, &#39;Helvetica Neue&#39;, Helvetica, sans-serif" font-weight="600" font-size="12.5" letter-spacing="0.2" fill="#150027" text-anchor="middle" dominant-baseline="central"><textPath href="#d0s2l1" startOffset="50%" dominant-baseline="central">AI-CENTRIC</textPath></text><path id="d0s2l2" fill="none" d="M991.49 430.41 L1097.47 362.26"></path><text font-family="Arial, &#39;Helvetica Neue&#39;, Helvetica, sans-serif" font-weight="600" font-size="12.5" letter-spacing="0.2" fill="#150027" text-anchor="middle" dominant-baseline="central"><textPath href="#d0s2l2" startOffset="50%" dominant-baseline="central">PRODUCTS</textPath></text><path id="d0s2l3" fill="none" d="M999.00 442.56 L1107.32 378.18"></path><text font-family="Arial, &#39;Helvetica Neue&#39;, Helvetica, sans-serif" font-weight="600" font-size="12.5" letter-spacing="0.2" fill="#150027" text-anchor="middle" dominant-baseline="central"><textPath href="#d0s2l3" startOffset="50%" dominant-baseline="central">&amp; SERVICES</textPath></text><path id="d0s3l0" fill="none" d="M1046.74 563.80 L1169.87 537.05"></path><text font-family="Arial, &#39;Helvetica Neue&#39;, Helvetica, sans-serif" font-weight="600" font-size="12.5" letter-spacing="0.2" fill="#150027" text-anchor="middle" dominant-baseline="central"><textPath href="#d0s3l0" startOffset="50%" dominant-baseline="central">AI VALUE</textPath></text><path id="d0s3l1" fill="none" d="M1049.53 577.81 L1173.52 555.41"></path><text font-family="Arial, &#39;Helvetica Neue&#39;, Helvetica, sans-serif" font-weight="600" font-size="12.5" letter-spacing="0.2" fill="#150027" text-anchor="middle" dominant-baseline="central"><textPath href="#d0s3l1" startOffset="50%" dominant-baseline="central">OPTIMIZATION</textPath></text><path id="d1" fill="none" d="M650.00 1011.00 A361 361 0 0 0 1011.00 650.00"></path><text font-family="Arial, &#39;Helvetica Neue&#39;, Helvetica, sans-serif" font-weight="800" font-size="25" letter-spacing="0.5" fill="#150027" text-anchor="middle" dominant-baseline="central"><textPath href="#d1" startOffset="50%" dominant-baseline="central">TRANSFORMING WORK</textPath></text><path id="d1s0l0" fill="none" d="M1049.53 722.19 L1173.52 744.59"></path><text font-family="Arial, &#39;Helvetica Neue&#39;, Helvetica, sans-serif" font-weight="600" font-size="12.5" letter-spacing="0.2" fill="#150027" text-anchor="middle" dominant-baseline="central"><textPath href="#d1s0l0" startOffset="50%" dominant-baseline="central">PROCESS</textPath></text><path id="d1s0l1" fill="none" d="M1046.74 736.20 L1169.87 762.95"></path><text font-family="Arial, &#39;Helvetica Neue&#39;, Helvetica, sans-serif" font-weight="600" font-size="12.5" letter-spacing="0.2" fill="#150027" text-anchor="middle" dominant-baseline="central"><textPath href="#d1s0l1" startOffset="50%" dominant-baseline="central">REDESIGN</textPath></text><path id="d1s1l0" fill="none" d="M991.49 869.59 L1097.47 937.74"></path><text font-family="Arial, &#39;Helvetica Neue&#39;, Helvetica, sans-serif" font-weight="600" font-size="12.5" letter-spacing="0.2" fill="#150027" text-anchor="middle" dominant-baseline="central"><textPath href="#d1s1l0" startOffset="50%" dominant-baseline="central">HUMAN + AI</textPath></text><path id="d1s1l1" fill="none" d="M983.56 881.46 L1087.07 953.30"></path><text font-family="Arial, &#39;Helvetica Neue&#39;, Helvetica, sans-serif" font-weight="600" font-size="12.5" letter-spacing="0.2" fill="#150027" text-anchor="middle" dominant-baseline="central"><textPath href="#d1s1l1" startOffset="50%" dominant-baseline="central">WORKFLOWS</textPath></text><path id="d1s2l0" fill="none" d="M881.46 983.56 L953.30 1087.07"></path><text font-family="Arial, &#39;Helvetica Neue&#39;, Helvetica, sans-serif" font-weight="600" font-size="12.5" letter-spacing="0.2" fill="#150027" text-anchor="middle" dominant-baseline="central"><textPath href="#d1s2l0" startOffset="50%" dominant-baseline="central">RETHINK PRODUCT</textPath></text><path id="d1s2l1" fill="none" d="M869.59 991.49 L937.74 1097.47"></path><text font-family="Arial, &#39;Helvetica Neue&#39;, Helvetica, sans-serif" font-weight="600" font-size="12.5" letter-spacing="0.2" fill="#150027" text-anchor="middle" dominant-baseline="central"><textPath href="#d1s2l1" startOffset="50%" dominant-baseline="central">DEVELOPMENT</textPath></text><path id="d1s3l0" fill="none" d="M736.20 1046.74 L762.95 1169.87"></path><text font-family="Arial, &#39;Helvetica Neue&#39;, Helvetica, sans-serif" font-weight="600" font-size="12.5" letter-spacing="0.2" fill="#150027" text-anchor="middle" dominant-baseline="central"><textPath href="#d1s3l0" startOffset="50%" dominant-baseline="central">OPERATING</textPath></text><path id="d1s3l1" fill="none" d="M722.19 1049.53 L744.59 1173.52"></path><text font-family="Arial, &#39;Helvetica Neue&#39;, Helvetica, sans-serif" font-weight="600" font-size="12.5" letter-spacing="0.2" fill="#150027" text-anchor="middle" dominant-baseline="central"><textPath href="#d1s3l1" startOffset="50%" dominant-baseline="central">MODEL</textPath></text><path id="d2" fill="none" d="M289.00 650.00 A361 361 0 0 0 650.00 1011.00"></path><text font-family="Arial, &#39;Helvetica Neue&#39;, Helvetica, sans-serif" font-weight="800" font-size="25" letter-spacing="0.5" fill="#150027" text-anchor="middle" dominant-baseline="central"><textPath href="#d2" startOffset="50%" dominant-baseline="central">AI-POWERED WORK</textPath></text><path id="d2s0l0" fill="none" d="M562.05 1174.68 L582.88 1050.41"></path><text font-family="Arial, &#39;Helvetica Neue&#39;, Helvetica, sans-serif" font-weight="600" font-size="12.5" letter-spacing="0.2" fill="#150027" text-anchor="middle" dominant-baseline="central"><textPath href="#d2s0l0" startOffset="50%" dominant-baseline="central">AUGMENTING</textPath></text><path id="d2s0l1" fill="none" d="M580.56 1177.45 L597.01 1052.53"></path><text font-family="Arial, &#39;Helvetica Neue&#39;, Helvetica, sans-serif" font-weight="600" font-size="12.5" letter-spacing="0.2" fill="#150027" text-anchor="middle" dominant-baseline="central"><textPath href="#d2s0l1" startOffset="50%" dominant-baseline="central">EVERYDAY WORK</textPath></text><path id="d2s0l2" fill="none" d="M599.16 1179.56 L611.20 1054.14"></path><text font-family="Arial, &#39;Helvetica Neue&#39;, Helvetica, sans-serif" font-weight="600" font-size="12.5" letter-spacing="0.2" fill="#150027" text-anchor="middle" dominant-baseline="central"><textPath href="#d2s0l2" startOffset="50%" dominant-baseline="central">WITH AI</textPath></text><path id="d2s1l0" fill="none" d="M429.25 1134.04 L481.53 1019.40"></path><text font-family="Arial, &#39;Helvetica Neue&#39;, Helvetica, sans-serif" font-weight="600" font-size="12.5" letter-spacing="0.2" fill="#150027" text-anchor="middle" dominant-baseline="central"><textPath href="#d2s1l0" startOffset="50%" dominant-baseline="central">RAPID</textPath></text><path id="d2s1l1" fill="none" d="M446.41 1141.50 L494.63 1025.10"></path><text font-family="Arial, &#39;Helvetica Neue&#39;, Helvetica, sans-serif" font-weight="600" font-size="12.5" letter-spacing="0.2" fill="#150027" text-anchor="middle" dominant-baseline="central"><textPath href="#d2s1l1" startOffset="50%" dominant-baseline="central">PROTOTYPING &amp;</textPath></text><path id="d2s1l2" fill="none" d="M463.83 1148.36 L507.92 1030.33"></path><text font-family="Arial, &#39;Helvetica Neue&#39;, Helvetica, sans-serif" font-weight="600" font-size="12.5" letter-spacing="0.2" fill="#150027" text-anchor="middle" dominant-baseline="central"><textPath href="#d2s1l2" startOffset="50%" dominant-baseline="central">EXPERIMENTATION</textPath></text><path id="d2s2l0" fill="none" d="M318.77 1066.30 L397.22 967.70"></path><text font-family="Arial, &#39;Helvetica Neue&#39;, Helvetica, sans-serif" font-weight="600" font-size="12.5" letter-spacing="0.2" fill="#150027" text-anchor="middle" dominant-baseline="central"><textPath href="#d2s2l0" startOffset="50%" dominant-baseline="central">AI-CENTRIC</textPath></text><path id="d2s2l1" fill="none" d="M333.61 1077.70 L408.55 976.40"></path><text font-family="Arial, &#39;Helvetica Neue&#39;, Helvetica, sans-serif" font-weight="600" font-size="12.5" letter-spacing="0.2" fill="#150027" text-anchor="middle" dominant-baseline="central"><textPath href="#d2s2l1" startOffset="50%" dominant-baseline="central">WAY-OF-WORKING</textPath></text><path id="d2s3l0" fill="none" d="M222.30 966.39 L323.60 891.45"></path><text font-family="Arial, &#39;Helvetica Neue&#39;, Helvetica, sans-serif" font-weight="600" font-size="12.5" letter-spacing="0.2" fill="#150027" text-anchor="middle" dominant-baseline="central"><textPath href="#d2s3l0" startOffset="50%" dominant-baseline="central">WORKING WITH</textPath></text><path id="d2s3l1" fill="none" d="M233.70 981.23 L332.30 902.78"></path><text font-family="Arial, &#39;Helvetica Neue&#39;, Helvetica, sans-serif" font-weight="600" font-size="12.5" letter-spacing="0.2" fill="#150027" text-anchor="middle" dominant-baseline="central"><textPath href="#d2s3l1" startOffset="50%" dominant-baseline="central">AI AGENTS</textPath></text><path id="d2s4l0" fill="none" d="M154.99 844.91 L272.23 798.75"></path><text font-family="Arial, &#39;Helvetica Neue&#39;, Helvetica, sans-serif" font-weight="600" font-size="12.5" letter-spacing="0.2" fill="#150027" text-anchor="middle" dominant-baseline="central"><textPath href="#d2s4l0" startOffset="50%" dominant-baseline="central">AI QUALITY</textPath></text><path id="d2s4l1" fill="none" d="M162.15 862.20 L277.70 811.94"></path><text font-family="Arial, &#39;Helvetica Neue&#39;, Helvetica, sans-serif" font-weight="600" font-size="12.5" letter-spacing="0.2" fill="#150027" text-anchor="middle" dominant-baseline="central"><textPath href="#d2s4l1" startOffset="50%" dominant-baseline="central">&amp; EVALUATION</textPath></text><path id="d2s5l0" fill="none" d="M120.44 700.84 L245.86 688.80"></path><text font-family="Arial, &#39;Helvetica Neue&#39;, Helvetica, sans-serif" font-weight="600" font-size="12.5" letter-spacing="0.2" fill="#150027" text-anchor="middle" dominant-baseline="central"><textPath href="#d2s5l0" startOffset="50%" dominant-baseline="central">DESIGNING</textPath></text><path id="d2s5l1" fill="none" d="M122.55 719.44 L247.47 702.99"></path><text font-family="Arial, &#39;Helvetica Neue&#39;, Helvetica, sans-serif" font-weight="600" font-size="12.5" letter-spacing="0.2" fill="#150027" text-anchor="middle" dominant-baseline="central"><textPath href="#d2s5l1" startOffset="50%" dominant-baseline="central">HUMAN-CENTERED</textPath></text><path id="d2s5l2" fill="none" d="M125.32 737.95 L249.59 717.12"></path><text font-family="Arial, &#39;Helvetica Neue&#39;, Helvetica, sans-serif" font-weight="600" font-size="12.5" letter-spacing="0.2" fill="#150027" text-anchor="middle" dominant-baseline="central"><textPath href="#d2s5l2" startOffset="50%" dominant-baseline="central">AI EXPERIENCES</textPath></text><path id="d3" fill="none" d="M289.00 650.00 A361 361 0 0 1 650.00 289.00"></path><text font-family="Arial, &#39;Helvetica Neue&#39;, Helvetica, sans-serif" font-weight="800" font-size="25" letter-spacing="0.5" fill="#150027" text-anchor="middle" dominant-baseline="central"><textPath href="#d3" startOffset="50%" dominant-baseline="central">AI FLUENCY</textPath></text><path id="d3s0l0" fill="none" d="M122.55 580.56 L247.47 597.01"></path><text font-family="Arial, &#39;Helvetica Neue&#39;, Helvetica, sans-serif" font-weight="600" font-size="12.5" letter-spacing="0.2" fill="#150027" text-anchor="middle" dominant-baseline="central"><textPath href="#d3s0l0" startOffset="50%" dominant-baseline="central">AI LITERACY</textPath></text><path id="d3s1l0" fill="none" d="M162.15 437.80 L277.70 488.06"></path><text font-family="Arial, &#39;Helvetica Neue&#39;, Helvetica, sans-serif" font-weight="600" font-size="12.5" letter-spacing="0.2" fill="#150027" text-anchor="middle" dominant-baseline="central"><textPath href="#d3s1l0" startOffset="50%" dominant-baseline="central">AI MECHANICS</textPath></text><path id="d3s1l1" fill="none" d="M154.99 455.09 L272.23 501.25"></path><text font-family="Arial, &#39;Helvetica Neue&#39;, Helvetica, sans-serif" font-weight="600" font-size="12.5" letter-spacing="0.2" fill="#150027" text-anchor="middle" dominant-baseline="central"><textPath href="#d3s1l1" startOffset="50%" dominant-baseline="central">&amp; TECHNOLOGIES</textPath></text><path id="d3s2l0" fill="none" d="M233.70 318.77 L332.30 397.22"></path><text font-family="Arial, &#39;Helvetica Neue&#39;, Helvetica, sans-serif" font-weight="600" font-size="12.5" letter-spacing="0.2" fill="#150027" text-anchor="middle" dominant-baseline="central"><textPath href="#d3s2l0" startOffset="50%" dominant-baseline="central">AI TOOLING</textPath></text><path id="d3s2l1" fill="none" d="M222.30 333.61 L323.60 408.55"></path><text font-family="Arial, &#39;Helvetica Neue&#39;, Helvetica, sans-serif" font-weight="600" font-size="12.5" letter-spacing="0.2" fill="#150027" text-anchor="middle" dominant-baseline="central"><textPath href="#d3s2l1" startOffset="50%" dominant-baseline="central">LANDSCAPE</textPath></text><path id="d3s3l0" fill="none" d="M326.14 227.94 L402.84 327.90"></path><text font-family="Arial, &#39;Helvetica Neue&#39;, Helvetica, sans-serif" font-weight="600" font-size="12.5" letter-spacing="0.2" fill="#150027" text-anchor="middle" dominant-baseline="central"><textPath href="#d3s3l0" startOffset="50%" dominant-baseline="central">PROMPTING</textPath></text><path id="d3s4l0" fill="none" d="M455.09 154.99 L501.25 272.23"></path><text font-family="Arial, &#39;Helvetica Neue&#39;, Helvetica, sans-serif" font-weight="600" font-size="12.5" letter-spacing="0.2" fill="#150027" text-anchor="middle" dominant-baseline="central"><textPath href="#d3s4l0" startOffset="50%" dominant-baseline="central">CONTEXT</textPath></text><path id="d3s4l1" fill="none" d="M437.80 162.15 L488.06 277.70"></path><text font-family="Arial, &#39;Helvetica Neue&#39;, Helvetica, sans-serif" font-weight="600" font-size="12.5" letter-spacing="0.2" fill="#150027" text-anchor="middle" dominant-baseline="central"><textPath href="#d3s4l1" startOffset="50%" dominant-baseline="central">MANAGEMENT</textPath></text><path id="d3s5l0" fill="none" d="M580.56 122.55 L597.01 247.47"></path><text font-family="Arial, &#39;Helvetica Neue&#39;, Helvetica, sans-serif" font-weight="600" font-size="12.5" letter-spacing="0.2" fill="#150027" text-anchor="middle" dominant-baseline="central"><textPath href="#d3s5l0" startOffset="50%" dominant-baseline="central">DATA LITERACY</textPath></text><path id="core0" fill="none" d="M579.00 772.98 A142 142 0 0 1 579.00 527.02"></path><text font-family="Arial, &#39;Helvetica Neue&#39;, Helvetica, sans-serif" font-weight="800" font-size="24" letter-spacing="0.6" fill="#ffffff" text-anchor="middle" dominant-baseline="central"><textPath href="#core0" startOffset="50%" dominant-baseline="central">CRITICAL THINKING</textPath></text><path id="cs00l0" fill="none" d="M425.70 520.50 A259 259 0 0 1 650.00 391.00"></path><text font-family="Arial, &#39;Helvetica Neue&#39;, Helvetica, sans-serif" font-weight="600" font-size="12" letter-spacing="0.2" fill="#ffffff" text-anchor="middle" dominant-baseline="central"><textPath href="#cs00l0" startOffset="50%" dominant-baseline="central">IDENTIFYING &amp;</textPath></text><path id="cs00l1" fill="none" d="M440.42 529.00 A242 242 0 0 1 650.00 408.00"></path><text font-family="Arial, &#39;Helvetica Neue&#39;, Helvetica, sans-serif" font-weight="600" font-size="12" letter-spacing="0.2" fill="#ffffff" text-anchor="middle" dominant-baseline="central"><textPath href="#cs00l1" startOffset="50%" dominant-baseline="central">FRAMING PROBLEMS</textPath></text><path id="cs00l2" fill="none" d="M455.14 537.50 A225 225 0 0 1 650.00 425.00"></path><text font-family="Arial, &#39;Helvetica Neue&#39;, Helvetica, sans-serif" font-weight="600" font-size="12" letter-spacing="0.2" fill="#ffffff" text-anchor="middle" dominant-baseline="central"><textPath href="#cs00l2" startOffset="50%" dominant-baseline="central">&amp; OPPORTUNITIES</textPath></text><path id="cs01l0" fill="none" d="M433.06 775.25 A250.5 250.5 0 0 1 433.06 524.75"></path><text font-family="Arial, &#39;Helvetica Neue&#39;, Helvetica, sans-serif" font-weight="600" font-size="12" letter-spacing="0.2" fill="#ffffff" text-anchor="middle" dominant-baseline="central"><textPath href="#cs01l0" startOffset="50%" dominant-baseline="central">JUDGMENT &amp;</textPath></text><path id="cs01l1" fill="none" d="M447.78 766.75 A233.5 233.5 0 0 1 447.78 533.25"></path><text font-family="Arial, &#39;Helvetica Neue&#39;, Helvetica, sans-serif" font-weight="600" font-size="12" letter-spacing="0.2" fill="#ffffff" text-anchor="middle" dominant-baseline="central"><textPath href="#cs01l1" startOffset="50%" dominant-baseline="central">VERIFICATION</textPath></text><path id="cs02l0" fill="none" d="M447.78 766.75 A233.5 233.5 0 0 0 650.00 883.50"></path><text font-family="Arial, &#39;Helvetica Neue&#39;, Helvetica, sans-serif" font-weight="600" font-size="12" letter-spacing="0.2" fill="#ffffff" text-anchor="middle" dominant-baseline="central"><textPath href="#cs02l0" startOffset="50%" dominant-baseline="central">LEARNING</textPath></text><path id="cs02l1" fill="none" d="M433.06 775.25 A250.5 250.5 0 0 0 650.00 900.50"></path><text font-family="Arial, &#39;Helvetica Neue&#39;, Helvetica, sans-serif" font-weight="600" font-size="12" letter-spacing="0.2" fill="#ffffff" text-anchor="middle" dominant-baseline="central"><textPath href="#cs02l1" startOffset="50%" dominant-baseline="central">AGILITY</textPath></text><path id="core1" fill="none" d="M721.00 527.02 A142 142 0 0 1 721.00 772.98"></path><text font-family="Arial, &#39;Helvetica Neue&#39;, Helvetica, sans-serif" font-weight="800" font-size="24" letter-spacing="0.6" fill="#ffffff" text-anchor="middle" dominant-baseline="central"><textPath href="#core1" startOffset="50%" dominant-baseline="central">HUMAN- CENTRICITY</textPath></text><path id="cs10l0" fill="none" d="M650.00 399.50 A250.5 250.5 0 0 1 866.94 524.75"></path><text font-family="Arial, &#39;Helvetica Neue&#39;, Helvetica, sans-serif" font-weight="600" font-size="12" letter-spacing="0.2" fill="#ffffff" text-anchor="middle" dominant-baseline="central"><textPath href="#cs10l0" startOffset="50%" dominant-baseline="central">EMPATHY &amp;</textPath></text><path id="cs10l1" fill="none" d="M650.00 416.50 A233.5 233.5 0 0 1 852.22 533.25"></path><text font-family="Arial, &#39;Helvetica Neue&#39;, Helvetica, sans-serif" font-weight="600" font-size="12" letter-spacing="0.2" fill="#ffffff" text-anchor="middle" dominant-baseline="central"><textPath href="#cs10l1" startOffset="50%" dominant-baseline="central">UNDERSTANDING</textPath></text><path id="cs11l0" fill="none" d="M866.94 524.75 A250.5 250.5 0 0 1 866.94 775.25"></path><text font-family="Arial, &#39;Helvetica Neue&#39;, Helvetica, sans-serif" font-weight="600" font-size="12" letter-spacing="0.2" fill="#ffffff" text-anchor="middle" dominant-baseline="central"><textPath href="#cs11l0" startOffset="50%" dominant-baseline="central">COMMUNICATION</textPath></text><path id="cs11l1" fill="none" d="M852.22 533.25 A233.5 233.5 0 0 1 852.22 766.75"></path><text font-family="Arial, &#39;Helvetica Neue&#39;, Helvetica, sans-serif" font-weight="600" font-size="12" letter-spacing="0.2" fill="#ffffff" text-anchor="middle" dominant-baseline="central"><textPath href="#cs11l1" startOffset="50%" dominant-baseline="central">&amp; STORYTELLING</textPath></text><path id="cs12l0" fill="none" d="M650.00 883.50 A233.5 233.5 0 0 0 852.22 766.75"></path><text font-family="Arial, &#39;Helvetica Neue&#39;, Helvetica, sans-serif" font-weight="600" font-size="12" letter-spacing="0.2" fill="#ffffff" text-anchor="middle" dominant-baseline="central"><textPath href="#cs12l0" startOffset="50%" dominant-baseline="central">COLLABORATION</textPath></text><path id="cs12l1" fill="none" d="M650.00 900.50 A250.5 250.5 0 0 0 866.94 775.25"></path><text font-family="Arial, &#39;Helvetica Neue&#39;, Helvetica, sans-serif" font-weight="600" font-size="12" letter-spacing="0.2" fill="#ffffff" text-anchor="middle" dominant-baseline="central"><textPath href="#cs12l1" startOffset="50%" dominant-baseline="central">&amp; FACILITATION</textPath></text></g>
</svg>